<?xml version="1.0" standalone="no"?>
<!DOCTYPE svg PUBLIC "-//W3C//DTD SVG 20010904//EN"
 "http://www.w3.org/TR/2001/REC-SVG-20010904/DTD/svg10.dtd">
<svg version="1.0" xmlns="http://www.w3.org/2000/svg"
 width="552.000000pt" height="542.000000pt" viewBox="0 0 552.000000 542.000000"
 preserveAspectRatio="xMidYMid meet">

<g transform="translate(0.000000,542.000000) scale(0.100000,-0.100000)"
fill="#000000" stroke="none">
<path d="M3474 4853 c-9 -21 -102 -254 -207 -518 l-193 -480 -1267 -3 -1267
-2 0 -350 0 -350 1124 -2 1124 -3 -283 -705 -284 -705 -840 -3 -841 -2 0 -350
0 -350 699 -2 699 -3 -198 -492 c-109 -271 -201 -502 -205 -513 -6 -20 -3 -20
342 -20 l348 0 205 513 205 512 1213 3 1212 2 0 350 0 350 -1069 2 -1068 3
281 707 281 708 788 0 787 0 0 350 0 350 -645 0 c-355 0 -645 2 -645 5 0 3 91
229 201 503 111 273 204 505 207 515 4 16 -17 17 -343 17 l-347 0 -14 -37z"/>
</g>
</svg>
